# xmcd
#
# Track frame offsets:
#	150
#	16132
#	28798
#	38689
#	51883
#	70606
#	82114
#	94117
#	107558
#	121943
#
# Disc length: 1793 seconds
#
# Revision: 3662628627
# Processed by: cddbd v1.5.2PL0 Copyright (c) Steve Scherf et al.
# Submitted via: EZCDAudioConverter 8.0.7.1
#
DISCID=7506ff0a
DTITLE=Justin Townes Earle - Single Mothers
DYEAR=2014
DGENRE=Country
TTITLE0=Worried Bout The Weather
TTITLE1=Single Mothers
TTITLE2=My Baby Drives
TTITLE3=Today And A Lonely Night
TTITLE4=Picture In A Drawer
TTITLE5=Wanna Be A Stranger
TTITLE6=White Gardenias
TTITLE7=Time Shows Fools
TTITLE8=It's Cold In This House
TTITLE9=Burning Pictures
EXTD=
EXTT0=
EXTT1=
EXTT2=
EXTT3=
EXTT4=
EXTT5=
EXTT6=
EXTT7=
EXTT8=
EXTT9=
PLAYORDER=
